<svg viewBox="0 0 800 500" xmlns="http://www.w3.org/2000/svg" role="img" aria-label="Bagliore di un fuoco acceso">
  <defs>
    <radialGradient id="bagliore1" cx="68%" cy="46%" r="55%">
      <stop offset="0%" stop-color="#C1440E" stop-opacity="0.65"/>
      <stop offset="55%" stop-color="#9C3609" stop-opacity="0.25"/>
      <stop offset="100%" stop-color="#2A211B" stop-opacity="0"/>
    </radialGradient>
    <radialGradient id="fiammaGrad" cx="50%" cy="80%" r="70%">
      <stop offset="0%" stop-color="#F2B24A"/>
      <stop offset="45%" stop-color="#C1440E"/>
      <stop offset="100%" stop-color="#7A2B0A"/>
    </radialGradient>
    <filter id="sfocatura1"><feGaussianBlur stdDeviation="18"/></filter>
    <filter id="sfocatura2"><feGaussianBlur stdDeviation="8"/></filter>
  </defs>

  <rect width="800" height="500" fill="#211812"/>
  <rect width="800" height="500" fill="url(#bagliore1)"/>

  <!-- braci sul fondo -->
  <ellipse cx="500" cy="470" rx="220" ry="26" fill="#3A2A20"/>
  <g filter="url(#sfocatura2)">
    <ellipse cx="430" cy="460" rx="18" ry="9" fill="#E8792B" opacity="0.85"/>
    <ellipse cx="480" cy="468" rx="14" ry="7" fill="#F2A24A" opacity="0.8"/>
    <ellipse cx="560" cy="462" rx="20" ry="10" fill="#C1440E" opacity="0.9"/>
    <ellipse cx="610" cy="470" rx="12" ry="6" fill="#E8792B" opacity="0.7"/>
  </g>

  <!-- fiamma stilizzata -->
  <g filter="url(#sfocatura1)" opacity="0.9">
    <path d="M500 260 C 460 320, 470 380, 500 420 C 530 380, 545 330, 500 260 Z" fill="url(#fiammaGrad)"/>
  </g>
  <path d="M505 290 C 478 335, 486 380, 508 405 C 528 375, 536 335, 505 290 Z" fill="url(#fiammaGrad)" opacity="0.95"/>
  <path d="M508 330 C 494 355, 498 380, 512 392 C 524 372, 526 350, 508 330 Z" fill="#F6C878"/>

  <!-- fascia decorativa a intaglio, in basso -->
  <g opacity="0.5">
    <rect y="486" width="800" height="14" fill="none"/>
    <path d="M0 493 L20 486 L40 493 L60 486 L80 493 L100 486 L120 493 L140 486 L160 493 L180 486 L200 493 L220 486 L240 493 L260 486 L280 493 L300 486 L320 493 L340 486 L360 493 L380 486 L400 493 L420 486 L440 493 L460 486 L480 493 L500 486 L520 493 L540 486 L560 493 L580 486 L600 493 L620 486 L640 493 L660 486 L680 493 L700 486 L720 493 L740 486 L760 493 L780 486 L800 493"
      stroke="#A67C3C" stroke-width="2" fill="none"/>
  </g>
</svg>
